<?xml version='1.0' encoding='utf-8'?>
<svg xmlns="http://www.w3.org/2000/svg" viewBox="0 0 128 128"> <path d="m88.65625,11.125c-7.17525,0-13.47081,3.78797-17,9.46875-.65761-.19007-1.32665-.37484-2-.53125l-.15625-.03125c-.30146-.06825-.60188-.12624-.90625-.1875-.75508-.1532-1.50919-.29654-2.28125-.40625l-.15625-.03125c-1.79094-.24713-3.63322-.375-5.5-.375-.6118,0-1.20822.03529-1.8125.0625h-.03125c-.60761.02784-1.21323.07031-1.8125.125-1.21702.11106-2.41559.28237-3.59375.5-.56965.10523-1.12798.21458-1.6875.34375h-.0625l-.21875.0625c-.48017.11461-.96539.21191-1.4375.34375-.02176.00606-.04075.02516-.0625.03125-1.08331.30461-2.15058.67062-3.1875,1.0625-.35639.13442-.71201.26192-1.0625.40625l-.59375.25-.0625.03125-.0625.03125c-.73411.32021-1.45083.66848-2.15625,1.03125-.63831.32825-1.26179.6696-1.875,1.03125-.11182.06603-.23279.12039-.34375.1875l-15.25-7.09375 3.53125,18.75c-.34107.57053-.66516,1.15968-.96875,1.75-.30682.59659-.57669,1.19701-.84375,1.8125-.26486.6104-.52569,1.21606-.75,1.84375-.21561.60334-.41692,1.22561-.59375,1.84375-.00548.01924.00545.04325 0,.0625-.18258.64319-.3608,1.27962-.5,1.9375-.00631.02981.00622.06391 0,.09375-.13358.64123-.25271,1.28361-.34375,1.9375-.09333.67038-.17155,1.34883-.21875,2.03125s-.09375,1.37463-.09375,2.0625c0,1.12388.09473,2.21763.21875,3.3125 .06195.5469.12701,1.08637.21875,1.625 .08894.52219.19627,1.04873.3125,1.5625 .01169.05195.01929.10439.03125.15625 .07801.33634.16053.66753.25,1 .18192.67906.39657,1.33831.625,2 .2245.6503.48217,1.30541.75,1.9375 .1208.28424.24568.56339.375.84375 .03319.07216.06.14686.09375.21875 .23002.48861.46336.9614.71875,1.4375 .35321.66048.7247,1.30275 1.125,1.9375l.21875.34375c.39597.6103.81207,1.19713 1.25,1.78125l.03125.03125c.41678.55436.85953,1.09578 1.3125,1.625l.71875.8125c.37683.41256.7577.82359 1.15625,1.21875 .00512.00507.02613-.00507.03125,0s-.00511.0262 0,.03125l.09375.09375c.44688.43853.90231.86542 1.375,1.28125 .19365.17048.39592.33344.59375.5 .40866.34382.82393.67341 1.25,1 .13657.10469.26794.20963.40625.3125 .28831.21497.57928.41805.875.625 .26412.18451.54262.35327.8125.53125s.53645.35938.8125.53125c.57254.35596 1.15417.70494 1.75,1.03125 .49318.27068.99175.53167 1.5.78125 .51516.25298 1.03264.48815 1.5625.71875 .55322.24077 1.08788.50316 1.65625.71875-.07514.18703-.12918.39215-.125.59375 0,11.1583-.02787,16.77351-.0625,19.59375-.00921.74979-.02694.90688-.03125,1.3125l-9.40625-4.4375c-.26919-.13928-.57425-.19375-.875-.15625-.65422.09947-1.15642.62616-1.25,1.28125s.24354,1.28383.84375,1.5625l10.8125,5.09375 3.34375,10.8125c.25025.79391 1.08109,1.21901 1.875.96875s1.25025-1.08109 1-1.875l-2.5-8.15625 13.6875,6.4375c.75076.35381 1.64619.03201 2-.71875s.03201-1.64619-.71875-2l-12.6875-5.96875 8.96875-1.78125c.8198-.12944 1.37944-.89895 1.25-1.71875s-.89895-1.37944-1.71875-1.25l-.125.03125-11.5,2.3125c.01479-.43437.01939-.75321.03125-1.71875 .03447-2.80664.06178-8.41002.0625-19.28125 .12217.03561.25228.0593.375.09375 .75928.21289 1.53264.39446 2.3125.5625 .89861.19362 1.79545.36829 2.71875.5l.1875.03125c1.32509.18253 2.69414.295 4.0625.34375 .47927.01684.95343.03125 1.4375.03125 1.90042,0 3.77212-.15082 5.59375-.40625 .87798-.12311 1.7378-.25839 2.59375-.4375l.125-.03125 .6875-.15625c.57633-.13361 1.15389-.27921 1.71875-.4375 .06131-.0172.12633-.01376.1875-.03125-.0102,5.82402-.00661,10.11882-.03125,12.125-.00899.73182-.01892.8784-.03125,1.28125l-9.40625-4.40625c-.23226-.11612-.49069-.16996-.75-.15625-.69806.03057-1.27929.53165-1.40625,1.21875s.23397,1.37823.875,1.65625l10.8125,5.09375 3.34375,10.78125c.09816.57403.5322,1.03321 1.09375,1.1875s1.15357-.02547 1.53125-.46875 .46026-1.06383.21875-1.59375l-2.53125-8.21875 13.75,6.46875c.49223.27135 1.09607.25113 1.5625-.0625s.72183-.87927.65625-1.4375-.44233-1.02175-.96875-1.21875l-12.65625-5.9375 8.96875-1.8125c.76112-.1572 1.27689-.88422 1.1875-1.65625s-.75435-1.33339-1.53125-1.3125c-.08406.00339-.16769.01384-.25.03125l-11.5,2.3125c.01464-.43395.01961-.7395.03125-1.6875 .02619-2.13332.02186-6.75585.03125-13.1875 .0435-.01642.08158-.04593.125-.0625 .53965-.20561 1.06785-.42801 1.59375-.65625 .48475-.21064.96508-.42691 1.4375-.65625 .91801-.44566 1.81935-.92421 2.6875-1.4375 .1387-.0819.26888-.16644.40625-.25 .41962-.25544.84319-.51055 1.25-.78125 .2559-.17029.49933-.35507.75-.53125 .36351-.25514.71029-.51403 1.0625-.78125 .54668-.41477 1.07547-.83844 1.59375-1.28125 .22911-.19575.46415-.3927.6875-.59375 .3234-.29147.65776-.5727.96875-.875l.1875-.1875c.53337-.52649 1.03674-1.09894 1.53125-1.65625 .10371-.11679.21054-.22565.3125-.34375l.40625-.46875c.32812-.39483.66042-.81033.96875-1.21875 .01742-.02314.04515-.03932.0625-.0625 .43091-.57394.82837-1.15076 1.21875-1.75 .04174-.06407.08373-.12315.125-.1875 .15175-.23689.29225-.47814.4375-.71875 .27074-.44839.53362-.91418.78125-1.375l.03125-.03125c.37724-.70432.71003-1.42484 1.03125-2.15625s.61216-1.49317.875-2.25c.26883-.77407.51388-1.54602.71875-2.34375 .10103-.3934.19626-.78878.28125-1.1875 .16997-.79735.30236-1.62061.40625-2.4375 .05195-.40848.09006-.80582.125-1.21875 .02368-.27934.04672-.56249.0625-.84375 .00739-.13356.02566-.27227.03125-.40625 .00575-.13586-.00389-.26997 0-.40625 .00785-.27871.03125-.56334.03125-.84375 0-.70102-.04511-1.40366-.09375-2.09375 1.15103-.50347 2.25525-1.11071 3.28125-1.8125l6.9375,3.21875-1.625-8.625c2.13353-3.18084 3.40625-7.00984 3.40625-11.125 0-11.04-8.96-20-20-20z" fill="none" stroke="#000" stroke-linecap="round" stroke-linejoin="round" stroke-width="8"/> <path d="m48.07756,80.61146c-.40329-5e-005-.78029.14941-1.0625.4375s-.44586.69055-.4375,1.09375c0,11.1583-.02787,16.77351-.0625,19.59375-.00921.74979-.02694.90688-.03125,1.3125l-9.40625-4.4375c-.26919-.13928-.57425-.19375-.875-.15625-.65422.09947-1.15642.62616-1.25,1.28125s.24354,1.28383.84375,1.5625l10.8125,5.09375 3.34375,10.8125c.25025.79391 1.08109,1.21901 1.875.96875s1.25025-1.08109 1-1.875l-2.5-8.15625 13.6875,6.4375c.75076.35381 1.64619.03201 2-.71875s.03201-1.64619-.71875-2l-12.6875-5.96875 8.96875-1.78125c.8198-.12944 1.37944-.89895 1.25-1.71875s-.89895-1.37944-1.71875-1.25l-.125.03125-11.5,2.3125c.01479-.43437.01939-.75321.03125-1.71875 .03493-2.84443.0625-8.46047.0625-19.625 .00836-.4032-.15529-.80566-.4375-1.09375s-.65921-.43755-1.0625-.4375z" fill="#f00" fill-rule="evenodd"/> <path d="m72.92131,73.58021c-.75443.09509-1.31839.73962-1.3125,1.5 0,11.15829-.02787,16.77351-.0625,19.59375-.00899.73182-.01892.8784-.03125,1.28125l-9.40625-4.40625c-.23226-.11612-.49069-.16996-.75-.15625-.69806.03058-1.27929.53165-1.40625,1.21875s.23397,1.37823.875,1.65625l10.8125,5.09375 3.34375,10.78125c.09816.57403.5322,1.03321 1.09375,1.1875s1.15357-.02547 1.53125-.46875 .46026-1.06383.21875-1.59375l-2.53125-8.21875 13.75,6.46875c.49223.27135 1.09607.25113 1.5625-.0625s.72183-.87927.65625-1.4375-.44233-1.02175-.96875-1.21875l-12.65625-5.9375 8.96875-1.8125c.76112-.1572 1.27689-.88422 1.1875-1.65625s-.75435-1.33339-1.53125-1.3125c-.08406.00339-.16769.01384-.25.03125l-11.5,2.3125c.01464-.43395.01961-.7395.03125-1.6875 .03493-2.84443.0625-8.49172.0625-19.65625 .00334-.43253-.17671-.83763-.5-1.125s-.75834-.42903-1.1875-.375z" fill="#f00" fill-rule="evenodd"/> <path d="m25.344 17.438 3.5312 18.75c-2.7329 4.578-4.2812 9.8155-4.2812 15.375 0 17.946 16.15 32.5 36.062 32.5s36.094-14.554 36.094-32.5-16.181-32.531-36.094-32.531c-7.4258 0-14.324 2.0288-20.062 5.5l-15.25-7.0938z" fill="#ff0" stroke="#000" stroke-linecap="round" stroke-linejoin="round" stroke-width="2.8538"/> <path d="m108.66 31.112c0 11.04-8.96 20-20 20s-20-8.96-20-20 8.96-20 20-20 20 8.96 20 20z" fill="#ff0" stroke="#000" stroke-linecap="round" stroke-linejoin="round" stroke-width="3"/> <path transform="translate(12.664 -16.888)" d="m76 48a4 4 0 1 1-8 0 4 4 0 1 1 8 0z"/> <path transform="matrix(.3961 0 0 .3961 57.136 11.446)" d="m76 48a4 4 0 1 1-8 0 4 4 0 1 1 8 0z" fill="#fff"/> <path transform="translate(27.625 -23.656)" d="m76 48a4 4 0 1 1-8 0 4 4 0 1 1 8 0z"/> <path transform="matrix(.3961 0 0 .3961 72.097 4.6782)" d="m76 48a4 4 0 1 1-8 0 4 4 0 1 1 8 0z" fill="#fff"/> <path d="m91.477 43.706 15.406 7.1688-2.9314-15.644c-6.1373-3.0501-12.95 1.6623-12.475 8.475z" fill="#f00" fill-rule="evenodd" stroke="#000" stroke-linecap="round" stroke-linejoin="round" stroke-width="3"/> </svg>